<svg width="173" height="78" viewBox="0 0 173 78" fill="none" xmlns="http://www.w3.org/2000/svg">
<g filter="url(#filter0_d_424_465)">
<path d="M31.274 64.8897C45.6036 64.8897 57.2038 52.9081 57.2038 38.1482C57.2038 23.3884 45.6036 11.4067 31.274 11.4067C16.9444 11.4067 5.34424 23.3884 5.34424 38.1482C5.34424 52.9081 16.9444 64.8897 31.274 64.8897Z" stroke="#2A1D02"/>
<path d="M44.0702 39.1892V46.9987C43.338 47.9453 42.3511 48.8919 41.1096 49.8385C39.868 50.7851 38.3399 51.5739 36.5253 52.205C34.7425 52.8045 32.6414 53.1043 30.2219 53.1043C26.8474 53.0727 23.8708 52.347 21.2922 50.9271C18.7135 49.4757 16.6919 47.472 15.2276 44.9162C13.795 42.3288 13.0787 39.3154 13.0787 35.8761C13.0787 32.4368 13.795 29.4234 15.2276 26.8361C16.6919 24.2487 18.7135 22.245 21.2922 20.8251C23.8708 19.3737 26.8474 18.6479 30.2219 18.6479C31.9728 18.6479 33.5487 18.7899 34.9495 19.0739C36.3502 19.3579 37.6077 19.7523 38.7219 20.2572C39.868 20.7305 40.9026 21.2669 41.8259 21.8664L42.7809 28.5399H42.3511C41.8736 26.7099 41.0778 25.1795 39.9635 23.9489C38.8811 22.6868 37.5122 21.7244 35.8568 21.0618C34.2014 20.3992 32.3231 20.0679 30.2219 20.0679C27.5478 20.0679 25.1919 20.7305 23.1545 22.0557C21.1171 23.381 19.5253 25.2268 18.3792 27.5933C17.2332 29.9598 16.6601 32.7208 16.6601 35.8761C16.6601 39.0314 17.2332 41.7924 18.3792 44.1589C19.5253 46.5254 21.1171 48.3713 23.1545 49.6965C25.1919 50.9902 27.5478 51.6528 30.2219 51.6844C31.6227 51.6844 32.9598 51.5266 34.2332 51.2111C35.5384 50.8639 36.7641 50.3906 37.9101 49.7912C39.0562 49.1601 40.075 48.4186 40.9663 47.5666L41.0141 39.1892C41.0141 37.7693 40.2023 37.0594 38.5787 37.0594H37.8146V36.5861H47.1742V37.0594H46.4579C44.8025 37.0594 44.0065 37.7693 44.0702 39.1892Z" fill="#2A1D02"/>
<path d="M69.9102 5.24023V6.33829C69.2085 6.4847 68.433 6.90562 67.5837 7.60106C66.7344 8.2599 66.0511 9.43115 65.5341 11.1148L55.0648 44.386C54.991 44.386 54.9171 44.386 54.8432 44.386C54.7694 44.386 54.6955 44.386 54.6217 44.386C54.5478 44.386 54.4739 44.386 54.4001 44.386C54.3263 44.386 54.2523 44.386 54.1785 44.386L42.4351 9.85208C41.955 8.4246 41.4196 7.49125 40.8287 7.05203C40.2378 6.61281 39.6839 6.37489 39.1669 6.33829V5.24023C39.8317 5.27684 40.6626 5.31344 41.6596 5.35004C42.6567 5.38664 43.6168 5.40494 44.5401 5.40494C45.9803 5.40494 47.3282 5.38664 48.5838 5.35004C49.8394 5.31344 50.8549 5.27684 51.6304 5.24023V6.33829C50.5226 6.37489 49.6363 6.48469 48.9716 6.66771C48.3438 6.85072 47.9745 7.25333 47.8637 7.87557C47.7899 8.4978 47.9745 9.52266 48.4176 10.9501L56.6712 36.2604L55.8957 36.9192L63.2076 14.1345C63.8723 12.1214 64.1677 10.5658 64.0939 9.46776C64.0569 8.3331 63.6508 7.54616 62.8753 7.10693C62.0998 6.63111 60.9365 6.37489 59.3855 6.33829V5.24023C60.4564 5.27684 61.5458 5.31344 62.6537 5.35004C63.7616 5.38664 64.7956 5.40494 65.7557 5.40494C66.7158 5.40494 67.5099 5.38664 68.1376 5.35004C68.7654 5.31344 69.3563 5.27684 69.9102 5.24023ZM31.1903 5.24023V6.33829C30.2302 6.41149 29.5285 6.5945 29.0854 6.88732C28.6792 7.18013 28.476 7.65596 28.476 8.3148C28.513 8.93703 28.7161 9.81545 29.0854 10.9501L37.6713 36.9192L36.2865 38.2918L44.0416 13.7502L44.8724 15.0679L35.7326 44.386C35.6587 44.386 35.5848 44.386 35.511 44.386C35.4372 44.386 35.3632 44.386 35.2894 44.386C35.2156 44.386 35.1417 44.386 35.0678 44.386C34.994 44.386 34.9201 44.386 34.8463 44.386L23.1029 9.85208C22.6228 8.4246 22.0135 7.49125 21.2749 7.05203C20.5364 6.61281 19.8717 6.37489 19.2808 6.33829V5.24023C20.0193 5.27684 20.9241 5.31344 21.995 5.35004C23.1029 5.38664 24.1738 5.40494 25.2078 5.40494C26.4265 5.40494 27.5528 5.38664 28.5868 5.35004C29.6577 5.31344 30.5256 5.27684 31.1903 5.24023Z" fill="#2A1D02"/>
</g>
<path d="M80.7808 52.24C79.3408 52.24 78.0368 52.032 76.8688 51.616C75.7168 51.184 74.7328 50.576 73.9168 49.792C73.1168 48.992 72.4928 48.032 72.0448 46.912C71.6128 45.776 71.3968 44.504 71.3968 43.096C71.3968 41.64 71.6288 40.312 72.0928 39.112C72.5728 37.896 73.2368 36.856 74.0848 35.992C74.9328 35.128 75.9488 34.464 77.1328 34C78.3168 33.52 79.6288 33.28 81.0688 33.28C82.0608 33.28 83.0048 33.416 83.9008 33.688C84.7968 33.96 85.7648 34.4 86.8048 35.008L87.2608 33.52H88.1248V39.592H86.9248C86.6048 38.088 85.9568 36.92 84.9808 36.088C84.0208 35.256 82.8128 34.84 81.3568 34.84C79.5168 34.84 78.0848 35.552 77.0608 36.976C76.0528 38.384 75.5488 40.36 75.5488 42.904C75.5488 45.4 76.0448 47.312 77.0368 48.64C78.0288 49.968 79.4688 50.632 81.3568 50.632C82.7168 50.632 83.7728 50.288 84.5248 49.6C85.2928 48.896 85.6768 47.928 85.6768 46.696C85.6768 45.96 85.4848 45.424 85.1008 45.088C84.7168 44.736 84.0688 44.52 83.1568 44.44V43.48H90.9328V44.44C90.1488 44.44 89.6048 44.616 89.3008 44.968C88.9968 45.304 88.8448 45.92 88.8448 46.816V50.008C88.4928 50.008 88.1968 50.024 87.9568 50.056C87.7168 50.072 87.4768 50.12 87.2368 50.2C87.0128 50.264 86.7568 50.376 86.4688 50.536C86.1808 50.696 85.8208 50.904 85.3888 51.16C84.1568 51.88 82.6208 52.24 80.7808 52.24ZM99.7642 52H91.1962V51.04C91.7402 51.024 92.1722 50.976 92.4922 50.896C92.8282 50.8 93.0842 50.632 93.2602 50.392C93.4362 50.152 93.5562 49.816 93.6202 49.384C93.6842 48.936 93.7162 48.336 93.7162 47.584V37.936C93.7162 37.264 93.6842 36.712 93.6202 36.28C93.5722 35.832 93.4682 35.48 93.3082 35.224C93.1482 34.968 92.9162 34.792 92.6122 34.696C92.3242 34.584 91.9322 34.512 91.4362 34.48V33.52H99.5242V34.48C99.0282 34.512 98.6282 34.584 98.3242 34.696C98.0362 34.792 97.8122 34.968 97.6522 35.224C97.4922 35.48 97.3802 35.832 97.3162 36.28C97.2682 36.712 97.2442 37.264 97.2442 37.936V47.584C97.2442 48.336 97.2682 48.936 97.3162 49.384C97.3802 49.816 97.5002 50.152 97.6762 50.392C97.8682 50.632 98.1242 50.8 98.4442 50.896C98.7802 50.976 99.2202 51.024 99.7642 51.04V52ZM100.453 52V51.04C100.997 51.024 101.429 50.976 101.749 50.896C102.085 50.816 102.341 50.68 102.517 50.488C102.709 50.296 102.837 50.024 102.901 49.672C102.965 49.32 102.997 48.864 102.997 48.304V37.216C102.997 36.656 102.973 36.208 102.925 35.872C102.877 35.52 102.773 35.248 102.613 35.056C102.469 34.848 102.261 34.712 101.989 34.648C101.733 34.568 101.389 34.512 100.957 34.48V33.52H108.661C111.077 33.52 112.933 33.912 114.229 34.696C115.541 35.464 116.197 36.568 116.197 38.008C116.197 39.912 114.829 41.256 112.093 42.04V42.136C112.973 42.136 113.765 42.264 114.469 42.52C115.189 42.76 115.797 43.104 116.293 43.552C116.789 44 117.173 44.528 117.445 45.136C117.717 45.744 117.853 46.408 117.853 47.128C117.853 47.944 117.653 48.656 117.253 49.264C116.869 49.872 116.309 50.384 115.573 50.8C114.149 51.6 112.189 52 109.693 52H100.453ZM109.861 50.536C112.437 50.536 113.725 49.376 113.725 47.056C113.725 45.632 113.261 44.592 112.333 43.936C111.853 43.6 111.229 43.36 110.461 43.216C109.709 43.072 108.781 43 107.677 43H106.525V47.8C106.525 48.792 106.781 49.496 107.293 49.912C107.805 50.328 108.661 50.536 109.861 50.536ZM107.941 41.56C108.661 41.56 109.285 41.496 109.813 41.368C110.341 41.224 110.789 41.024 111.157 40.768C111.925 40.24 112.309 39.416 112.309 38.296C112.309 37.128 112.021 36.288 111.445 35.776C110.869 35.248 109.941 34.984 108.661 34.984H106.957C106.669 34.984 106.525 35.12 106.525 35.392V41.56H107.941ZM134.506 38.152C134.506 39.48 134.122 40.592 133.354 41.488C132.586 42.384 131.362 42.984 129.682 43.288L135.25 49.672C135.634 50.12 136.09 50.464 136.618 50.704C137.146 50.928 137.682 51.04 138.226 51.04V52H132.538L126.586 44.704C126.186 44.224 125.834 43.904 125.53 43.744C125.242 43.568 124.97 43.48 124.714 43.48V48.184C124.714 48.776 124.754 49.264 124.834 49.648C124.914 50.016 125.074 50.304 125.314 50.512C125.554 50.72 125.898 50.864 126.346 50.944C126.81 51.008 127.426 51.04 128.194 51.04V52H118.666V51.04C119.194 51.04 119.618 51.008 119.938 50.944C120.274 50.864 120.53 50.728 120.706 50.536C120.898 50.328 121.026 50.048 121.09 49.696C121.154 49.328 121.186 48.864 121.186 48.304V37.216C121.186 36.656 121.162 36.208 121.114 35.872C121.066 35.52 120.962 35.248 120.802 35.056C120.642 34.848 120.41 34.712 120.106 34.648C119.818 34.568 119.426 34.512 118.93 34.48V33.52H127.234C129.554 33.52 131.346 33.928 132.61 34.744C133.874 35.56 134.506 36.696 134.506 38.152ZM124.714 42.04H126.274C127.778 42.04 128.898 41.752 129.634 41.176C130.386 40.584 130.762 39.616 130.762 38.272C130.762 37.248 130.45 36.424 129.826 35.8C129.202 35.176 128.338 34.864 127.234 34.864H125.146C124.858 34.864 124.714 35 124.714 35.272V42.04ZM148.461 46.408H141.669C140.917 48.104 140.541 49.28 140.541 49.936C140.541 50.416 140.717 50.72 141.069 50.848C141.437 50.976 141.981 51.04 142.701 51.04V52H136.125V51.04C136.509 50.992 136.837 50.928 137.109 50.848C137.397 50.768 137.645 50.656 137.853 50.512C138.077 50.368 138.269 50.184 138.429 49.96C138.589 49.72 138.741 49.432 138.885 49.096L145.197 33.28H146.973L152.709 47.296C153.045 48.112 153.325 48.752 153.549 49.216C153.789 49.68 154.037 50.04 154.293 50.296C154.565 50.536 154.869 50.704 155.205 50.8C155.557 50.896 156.005 50.968 156.549 51.016V52H147.477V51.016C148.245 50.984 148.797 50.904 149.133 50.776C149.469 50.648 149.637 50.392 149.637 50.008C149.637 49.784 149.581 49.496 149.469 49.144C149.357 48.792 149.205 48.36 149.013 47.848L148.461 46.408ZM142.221 44.968H147.933L145.173 37.696H145.077L142.221 44.968ZM172.259 52H155.723V51.04C156.251 51.024 156.683 50.976 157.019 50.896C157.355 50.816 157.611 50.68 157.787 50.488C157.963 50.296 158.083 50.024 158.147 49.672C158.211 49.32 158.243 48.864 158.243 48.304V37.216C158.243 36.656 158.211 36.208 158.147 35.872C158.099 35.52 157.995 35.248 157.835 35.056C157.675 34.848 157.443 34.712 157.139 34.648C156.851 34.568 156.467 34.512 155.987 34.48V33.52H164.267V34.48C163.723 34.496 163.283 34.544 162.947 34.624C162.627 34.704 162.379 34.848 162.203 35.056C162.027 35.264 161.907 35.552 161.843 35.92C161.795 36.288 161.771 36.776 161.771 37.384V47.44C161.771 48.112 161.835 48.664 161.963 49.096C162.107 49.512 162.347 49.84 162.683 50.08C163.019 50.304 163.467 50.464 164.027 50.56C164.587 50.64 165.283 50.68 166.115 50.68C167.043 50.68 167.819 50.624 168.443 50.512C169.067 50.4 169.587 50.192 170.003 49.888C170.435 49.568 170.779 49.144 171.035 48.616C171.291 48.088 171.507 47.4 171.683 46.552H172.643L172.259 52Z" fill="#2A1D02"/>
<defs>
<filter id="filter0_d_424_465" x="-2" y="0" width="76" height="86" filterUnits="userSpaceOnUse" color-interpolation-filters="sRGB">
<feFlood flood-opacity="0" result="BackgroundImageFix"/>
<feColorMatrix in="SourceAlpha" type="matrix" values="0 0 0 0 0 0 0 0 0 0 0 0 0 0 0 0 0 0 127 0" result="hardAlpha"/>
<feOffset dy="4"/>
<feGaussianBlur stdDeviation="2"/>
<feComposite in2="hardAlpha" operator="out"/>
<feColorMatrix type="matrix" values="0 0 0 0 0 0 0 0 0 0 0 0 0 0 0 0 0 0 0.25 0"/>
<feBlend mode="normal" in2="BackgroundImageFix" result="effect1_dropShadow_424_465"/>
<feBlend mode="normal" in="SourceGraphic" in2="effect1_dropShadow_424_465" result="shape"/>
</filter>
</defs>
</svg>
